<svg width="80" height="80" viewBox="0 0 80 80" fill="none" xmlns="http://www.w3.org/2000/svg">
<path d="M0 20C0 8.95431 8.95431 0 20 0H60C71.0457 0 80 8.95431 80 20V60C80 71.0457 71.0457 80 60 80H20C8.95431 80 0 71.0457 0 60V20Z" fill="#8B72EF"/>
<path d="M23.3281 61.5625H16.8828V26.8984H18.4297L20.9844 29.9219C21.5625 29.375 22.1953 28.8594 22.8828 28.375C23.5703 27.8906 24.2812 27.4766 25.0156 27.1328C25.7656 26.7734 26.5391 26.4922 27.3359 26.2891C28.1328 26.0859 28.9375 25.9844 29.75 25.9844C31.5156 25.9844 33.1719 26.3047 34.7188 26.9453C36.2812 27.5703 37.6406 28.4609 38.7969 29.6172C39.9688 30.7734 40.8906 32.1719 41.5625 33.8125C42.2344 35.4375 42.5703 37.2422 42.5703 39.2266C42.5703 41.2891 42.2344 43.1484 41.5625 44.8047C40.8906 46.4453 39.9688 47.8438 38.7969 49C37.6406 50.1406 36.2812 51.0156 34.7188 51.625C33.1719 52.2344 31.5156 52.5391 29.75 52.5391C29.1875 52.5391 28.625 52.4766 28.0625 52.3516C27.5156 52.2266 26.9688 52.0625 26.4219 51.8594C25.8906 51.6406 25.3594 51.3984 24.8281 51.1328C24.3125 50.8672 23.8125 50.5938 23.3281 50.3125V61.5625ZM36.1484 39.2266C36.1484 38.1641 35.9766 37.2109 35.6328 36.3672C35.3047 35.5234 34.8516 34.8125 34.2734 34.2344C33.6953 33.6406 33.0156 33.1875 32.2344 32.875C31.4531 32.5625 30.625 32.4062 29.75 32.4062C28.875 32.4062 28.0469 32.5625 27.2656 32.875C26.5 33.1875 25.8281 33.6406 25.25 34.2344C24.6719 34.8125 24.2109 35.5234 23.8672 36.3672C23.5391 37.2109 23.375 38.1641 23.375 39.2266C23.375 40.2422 23.5391 41.1719 23.8672 42.0156C24.2109 42.8594 24.6719 43.5781 25.25 44.1719C25.8281 44.7656 26.5 45.2266 27.2656 45.5547C28.0469 45.8828 28.875 46.0469 29.75 46.0469C30.625 46.0469 31.4531 45.8828 32.2344 45.5547C33.0156 45.2266 33.6953 44.7656 34.2734 44.1719C34.8516 43.5781 35.3047 42.8594 35.6328 42.0156C35.9766 41.1719 36.1484 40.2422 36.1484 39.2266Z" fill="white"/>
<path d="M58.5312 52C56.9844 52 55.5312 51.7109 54.1719 51.1328C52.8125 50.5391 51.6172 49.7344 50.5859 48.7188C49.5703 47.6875 48.7656 46.4922 48.1719 45.1328C47.5938 43.7734 47.3047 42.3203 47.3047 40.7734V33.3203H44.1875V26.9453H47.3047V16.9141H53.6797V26.9453H63.3828V33.3203H53.6797V40.7734C53.6797 41.4453 53.8047 42.0781 54.0547 42.6719C54.3047 43.25 54.6484 43.7578 55.0859 44.1953C55.5234 44.6328 56.0391 44.9844 56.6328 45.25C57.2266 45.5 57.8594 45.625 58.5312 45.625H63.3828V52H58.5312Z" fill="#27AE60"/>
</svg>
